<?xml version="1.0" encoding="UTF-8"?>
<svg width="16px" height="15px" viewBox="0 0 16 15" version="1.1" xmlns="http://www.w3.org/2000/svg" xmlns:xlink="http://www.w3.org/1999/xlink">
    <!-- Generator: sketchtool 63.1 (101010) - https://sketch.com -->
    <title>40177DA6-BC64-4B17-9FAD-BAB87F24A701</title>
    <desc>Created with sketchtool.</desc>
    <g id="Icons" stroke="none" stroke-width="1" fill="none" fill-rule="evenodd">
        <g id="All-Menus" transform="translate(-514.000000, -1599.000000)">
            <g id="Clone" transform="translate(512.000000, 1596.000000)">
                <rect id="Rectangle-Copy-43" fill="#FFFFFF" opacity="0" x="0" y="0" width="20" height="20" rx="2.52"></rect>
                <path d="M17.0653563,3 C17.5446751,3 17.9397222,3.35537996 17.993712,3.81321882 L18,3.92057762 L18,13.66787 C18,14.1399752 17.63919,14.529077 17.1743555,14.5822543 L17.0653563,14.5884477 L13.766386,14.588 L13.766386,12.747 L16.1307127,12.7472924 L16.1307127,4.84115523 L8.10377294,4.84115523 L8.103,6.411 L12.8308707,6.41155235 C13.3101895,6.41155235 13.7052366,6.76693231 13.7592264,7.22477117 L13.7655144,7.33212996 L13.7655144,17.0794224 C13.7655144,17.5878434 13.3470602,18 12.8308707,18 L12.8308707,18 L2.93464367,18 C2.41845422,18 2,17.5878434 2,17.0794224 L2,17.0794224 L2,7.33212996 C2,6.82370898 2.41845422,6.41155235 2.93464367,6.41155235 L2.93464367,6.41155235 L6.234,6.411 L6.2344856,3.92057762 C6.2344856,3.44847242 6.59529562,3.05937066 7.06013007,3.0061934 L7.16912927,3 L17.0653563,3 Z M11.8962271,8.25270758 L3.86928733,8.25270758 L3.86928733,16.1588448 L11.8962271,16.1588448 L11.8962271,8.25270758 Z" id="Combined-Shape" fill="#3E4551" fill-rule="nonzero"></path>
            </g>
        </g>
    </g>
</svg>