<?xml version="1.0" encoding="UTF-8"?>
<svg width="16px" height="14px" viewBox="0 0 16 14" version="1.1" xmlns="http://www.w3.org/2000/svg" xmlns:xlink="http://www.w3.org/1999/xlink">
    <!-- Generator: sketchtool 63.1 (101010) - https://sketch.com -->
    <title>69C229D3-CFDF-42D9-B48D-B3698B04A1BC</title>
    <desc>Created with sketchtool.</desc>
    <g id="Icons" stroke="none" stroke-width="1" fill="none" fill-rule="evenodd">
        <g id="All-Menus" transform="translate(-1185.000000, -1615.000000)">
            <g id="Export-Copy" transform="translate(1183.000000, 1612.000000)">
                <rect id="Rectangle-Copy-43" fill="#FFFFFF" opacity="0" x="0" y="0" width="20" height="20" rx="2.52"></rect>
                <path d="M7,4.00010365 L7,6.00008771 L4,6.00008771 L4,15.0000159 L13,15.0000159 L13,11.0310476 L15,11.0310476 L15,16.000008 C15,16.5530036 14.553,17 14,17 L14,17 L3,17 C2.448,17 2,16.5530036 2,16.000008 L2,16.000008 L2,5.00010365 C2,4.44810008 2.448,4.00010365 3,4.00010365 L3,4.00010365 L7,4.00010365 Z M13.277,3.0531112 C13.446,2.96811188 13.65,2.98611174 13.8,3.10011083 L13.8,3.10011083 L17.8,6.10008691 C17.926,6.19408616 18,6.34308497 18,6.50008372 C18,6.65708247 17.926,6.80608128 17.8,6.90008053 L17.8,6.90008053 L13.8,9.90005661 C13.649,10.0140557 13.445,10.0320556 13.276,9.94705623 C13.107,9.86205691 13,9.68905829 13,9.5000598 L13,9.5000598 L13,8.00007176 L11.09,8.00007176 C9.374,8.00007176 7.832,8.95406415 7.065,10.4890519 L7.065,10.4890519 L6.947,10.72405 C6.861,10.8960487 6.686,11.0000478 6.5,11.0000478 C6.462,11.0000478 6.423,10.9960479 6.385,10.9870479 C6.16,10.9340484 6,10.73205 6,10.5000518 C6,7.46707601 8.467,5.00009568 11.5,5.00009568 L11.5,5.00009568 L13,5.00009568 L13,3.50010764 C13,3.31110915 13.107,3.13811052 13.277,3.0531112 Z" id="Combined-Shape-Copy-11" fill="#3E4551" fill-rule="nonzero"></path>
            </g>
        </g>
    </g>
</svg>