<?xml version="1.0" encoding="UTF-8"?>
<svg width="4px" height="14px" viewBox="0 0 4 14" version="1.1" xmlns="http://www.w3.org/2000/svg" xmlns:xlink="http://www.w3.org/1999/xlink">
    <!-- Generator: sketchtool 63.1 (101010) - https://sketch.com -->
    <title>7AF1F60A-763A-48FA-87A3-4CA848AA6C03</title>
    <desc>Created with sketchtool.</desc>
    <g id="Icons" stroke="none" stroke-width="1" fill="none" fill-rule="evenodd">
        <g id="All-Icons" transform="translate(-257.000000, -346.000000)">
            <g id="more_vert_black_24dp" transform="translate(249.000000, 343.000000)">
                <polygon id="Path" points="0 0 20 0 20 20 0 20"></polygon>
                <path d="M10,6.66666667 C10.9166667,6.66666667 11.6666667,5.91666667 11.6666667,5 C11.6666667,4.08333333 10.9166667,3.33333333 10,3.33333333 C9.08333333,3.33333333 8.33333333,4.08333333 8.33333333,5 C8.33333333,5.91666667 9.08333333,6.66666667 10,6.66666667 Z M10,8.33333333 C9.08333333,8.33333333 8.33333333,9.08333333 8.33333333,10 C8.33333333,10.9166667 9.08333333,11.6666667 10,11.6666667 C10.9166667,11.6666667 11.6666667,10.9166667 11.6666667,10 C11.6666667,9.08333333 10.9166667,8.33333333 10,8.33333333 Z M10,13.3333333 C9.08333333,13.3333333 8.33333333,14.0833333 8.33333333,15 C8.33333333,15.9166667 9.08333333,16.6666667 10,16.6666667 C10.9166667,16.6666667 11.6666667,15.9166667 11.6666667,15 C11.6666667,14.0833333 10.9166667,13.3333333 10,13.3333333 Z" id="Shape" fill="#3E4551" fill-rule="nonzero"></path>
            </g>
        </g>
    </g>
</svg>