<?xml version="1.0" encoding="UTF-8"?>
<svg width="16px" height="16px" viewBox="0 0 16 16" version="1.1" xmlns="http://www.w3.org/2000/svg" xmlns:xlink="http://www.w3.org/1999/xlink">
    <!-- Generator: sketchtool 63.1 (101010) - https://sketch.com -->
    <title>CCE1260A-0B3D-435B-8728-991A4BAC87B4</title>
    <desc>Created with sketchtool.</desc>
    <g id="Icons" stroke="none" stroke-width="1" fill="none" fill-rule="evenodd">
        <g id="All-Menus" transform="translate(-422.000000, -201.000000)">
            <g id="logout_black_24dp" transform="translate(420.000000, 199.000000)">
                <polygon id="Path" points="0 0 20 0 20 20 0 20"></polygon>
                <path d="M14.1666667,6.66666667 L12.9916667,7.84166667 L14.3083333,9.16666667 L7.5,9.16666667 L7.5,10.8333333 L14.3083333,10.8333333 L12.9916667,12.15 L14.1666667,13.3333333 L17.5,10 L14.1666667,6.66666667 Z M4.16666667,4.16666667 L10,4.16666667 L10,2.5 L4.16666667,2.5 C3.25,2.5 2.5,3.25 2.5,4.16666667 L2.5,15.8333333 C2.5,16.75 3.25,17.5 4.16666667,17.5 L10,17.5 L10,15.8333333 L4.16666667,15.8333333 L4.16666667,4.16666667 Z" id="Shape" fill="#3E4551" fill-rule="nonzero"></path>
            </g>
        </g>
    </g>
</svg>