<?xml version="1.0" encoding="UTF-8"?>
<svg width="18px" height="18px" viewBox="0 0 18 18" version="1.1" xmlns="http://www.w3.org/2000/svg" xmlns:xlink="http://www.w3.org/1999/xlink">
    <!-- Generator: sketchtool 63.1 (101010) - https://sketch.com -->
    <title>73681FC1-BA75-4C43-9C4A-231300A1AB0C</title>
    <desc>Created with sketchtool.</desc>
    <g id="Icons" stroke="none" stroke-width="1" fill="none" fill-rule="evenodd">
        <g id="All-Menus" transform="translate(-421.000000, -168.000000)">
            <g id="My-Profile-" transform="translate(420.000000, 167.000000)">
                <rect id="Rectangle" x="0" y="0" width="20" height="20"></rect>
                <g id="Group" transform="translate(1.666667, 1.666667)" fill="#3E4551" fill-rule="nonzero">
                    <path d="M8.33333333,0 C3.73333333,0 0,3.73333333 0,8.33333333 C0,12.9333333 3.73333333,16.6666667 8.33333333,16.6666667 C12.9333333,16.6666667 16.6666667,12.9333333 16.6666667,8.33333333 C16.6666667,3.73333333 12.9333333,0 8.33333333,0 Z M4.45833333,13.75 C5.55,12.9666667 6.88333333,12.5 8.33333333,12.5 C9.78333333,12.5 11.1166667,12.9666667 12.2083333,13.75 C11.1166667,14.5333333 9.78333333,15 8.33333333,15 C6.88333333,15 5.55,14.5333333 4.45833333,13.75 Z M13.45,12.6 L13.45,12.6 C12.0416667,11.5 10.2666667,10.8333333 8.33333333,10.8333333 C6.4,10.8333333 4.625,11.5 3.21666667,12.6 L3.21666667,12.6 C2.25,11.4416667 1.66666667,9.95833333 1.66666667,8.33333333 C1.66666667,4.65 4.65,1.66666667 8.33333333,1.66666667 C12.0166667,1.66666667 15,4.65 15,8.33333333 C15,9.95833333 14.4166667,11.4416667 13.45,12.6 Z" id="Shape"></path>
                    <path d="M8.33333333,3.33333333 C6.725,3.33333333 5.41666667,4.64166667 5.41666667,6.25 C5.41666667,7.85833333 6.725,9.16666667 8.33333333,9.16666667 C9.94166667,9.16666667 11.25,7.85833333 11.25,6.25 C11.25,4.64166667 9.94166667,3.33333333 8.33333333,3.33333333 Z M8.33333333,7.5 C7.64166667,7.5 7.08333333,6.94166667 7.08333333,6.25 C7.08333333,5.55833333 7.64166667,5 8.33333333,5 C9.025,5 9.58333333,5.55833333 9.58333333,6.25 C9.58333333,6.94166667 9.025,7.5 8.33333333,7.5 Z" id="Shape"></path>
                </g>
            </g>
        </g>
    </g>
</svg>