<?xml version="1.0" encoding="UTF-8"?>
<svg width="63px" height="63px" viewBox="0 0 63 63" version="1.1" xmlns="http://www.w3.org/2000/svg" xmlns:xlink="http://www.w3.org/1999/xlink">
    <!-- Generator: Sketch 63.1 (92452) - https://sketch.com -->
    <title>MBC-new-logo</title>
    <desc>Created with Sketch.</desc>
    <defs>
        <linearGradient x1="1.88349124%" y1="98.1201287%" x2="98.1157937%" y2="1.88782624%" id="linearGradient-1">
            <stop stop-color="#E6B73C" offset="0%"></stop>
            <stop stop-color="#F6CE59" offset="46.93%"></stop>
            <stop stop-color="#F6D16D" offset="100%"></stop>
        </linearGradient>
        <linearGradient x1="1.88460851%" y1="98.1186092%" x2="98.1168663%" y2="1.88630676%" id="linearGradient-2">
            <stop stop-color="#E6B73C" offset="0%"></stop>
            <stop stop-color="#F6CE59" offset="46.93%"></stop>
            <stop stop-color="#F6D16D" offset="100%"></stop>
        </linearGradient>
        <linearGradient x1="1.88237397%" y1="98.1166428%" x2="98.1146317%" y2="1.88434036%" id="linearGradient-3">
            <stop stop-color="#E6B73C" offset="0%"></stop>
            <stop stop-color="#F6CE59" offset="46.93%"></stop>
            <stop stop-color="#F6D16D" offset="100%"></stop>
        </linearGradient>
    </defs>
    <g id="Symbols" stroke="none" stroke-width="1" fill="none" fill-rule="evenodd">
        <g id="Header" transform="translate(-20.000000, -8.000000)">
            <g id="MBC-new-logo" transform="translate(20.000000, 8.000000)">
                <rect id="Rectangle" fill="#FFFFFF" x="0" y="0" width="63" height="63" rx="7"></rect>
                <g id="New-MBC-Logo" transform="translate(5.000000, 7.000000)">
                    <g id="Group" transform="translate(2.519084, 32.258270)">
                        <g transform="translate(0.000000, 0.769720)" fill-rule="nonzero" id="Path">
                            <path d="M15.1746819,15.3846056 L1.6178117,15.3846056 C1.03772265,15.3846056 0.568193384,14.9143766 0.568193384,14.3349873 L0.568193384,1.44287532 C0.568193384,0.86278626 1.03842239,0.393256997 1.6178117,0.393256997 L15.1753817,0.393256997 C15.7554707,0.393256997 16.225,0.863486005 16.225,1.44287532 L16.225,14.335687 C16.2243003,14.9150763 15.754771,15.3846056 15.1746819,15.3846056 Z" fill="#C5A652"></path>
                            <path d="M14.6589695,15.6994911 L1.0139313,15.6994911 C0.458333333,15.6994911 0.00769720102,15.248855 0.00769720102,14.693257 L0.00769720102,1.04821883 C0.00769720102,0.492620865 0.458333333,0.0419847328 1.0139313,0.0419847328 L14.6589695,0.0419847328 C15.2145674,0.0419847328 15.6652036,0.492620865 15.6652036,1.04821883 L15.6652036,14.693257 C15.6645038,15.2495547 15.2145674,15.6994911 14.6589695,15.6994911 Z" stroke="#F1F2F2" stroke-width="0.5" fill="url(#linearGradient-1)"></path>
                        </g>
                        <g transform="translate(2.868957, 0.000000)" fill="#494949" font-family="Helvetica" font-size="12.5954198" font-weight="normal">
                            <text id="C">
                                <tspan x="0.00521310433" y="13.0166959">C</tspan>
                            </text>
                            <text id="OST">
                                <tspan x="14.4765458" y="13.0166959">OST</tspan>
                            </text>
                        </g>
                    </g>
                    <g id="Group" transform="translate(8.187023, 16.094148)">
                        <g transform="translate(0.000000, 0.769720)" fill-rule="nonzero" id="Path">
                            <path d="M15.2026718,15.3776081 L1.64580153,15.3776081 C1.06571247,15.3776081 0.596183206,14.9073791 0.596183206,14.3279898 L0.596183206,1.43517812 C0.596183206,0.855089059 1.06641221,0.385559796 1.64580153,0.385559796 L15.2033715,0.385559796 C15.7834606,0.385559796 16.2529898,0.855788804 16.2529898,1.43517812 L16.2529898,14.3279898 C16.2529898,14.9073791 15.7827608,15.3776081 15.2026718,15.3776081 Z" fill="#C5A652"></path>
                            <path d="M14.6869593,15.6924936 L1.04192112,15.6924936 C0.486323155,15.6924936 0.0356870229,15.2418575 0.0356870229,14.6862595 L0.0356870229,1.04122137 C0.0356870229,0.48562341 0.486323155,0.0349872774 1.04192112,0.0349872774 L14.6869593,0.0349872774 C15.2425573,0.0349872774 15.6931934,0.48562341 15.6931934,1.04122137 L15.6931934,14.6862595 C15.6931934,15.2418575 15.2425573,15.6924936 14.6869593,15.6924936 Z" stroke="#F1F2F2" stroke-width="0.5" fill="url(#linearGradient-2)"></path>
                        </g>
                        <g transform="translate(3.568702, 0.000000)" fill="#494949" font-family="Helvetica" font-size="12.5954198" font-weight="normal">
                            <text id="B">
                                <tspan x="0.0692328244" y="13.0094606">B</tspan>
                            </text>
                            <text id="UILD">
                                <tspan x="14.4333645" y="13.0094606">UILD</tspan>
                            </text>
                        </g>
                    </g>
                    <g id="Group">
                        <g transform="translate(0.000000, 0.769720)" fill-rule="nonzero" id="Path">
                            <path d="M15.2117684,15.3867048 L1.65419847,15.3867048 C1.07410941,15.3867048 0.604580153,14.9164758 0.604580153,14.3370865 L0.604580153,1.44427481 C0.604580153,0.864185751 1.07480916,0.394656489 1.65419847,0.394656489 L15.2117684,0.394656489 C15.7918575,0.394656489 16.2613868,0.864885496 16.2613868,1.44427481 L16.2613868,14.3370865 C16.2613868,14.9164758 15.7911578,15.3867048 15.2117684,15.3867048 Z" fill="#C5A652"></path>
                            <path d="M14.696056,15.7015903 L1.05101781,15.7015903 C0.495419847,15.7015903 0.044783715,15.2509542 0.044783715,14.6953562 L0.044783715,1.05031807 C0.044783715,0.494720102 0.495419847,0.0440839695 1.05101781,0.0440839695 L14.696056,0.0440839695 C15.2516539,0.0440839695 15.7022901,0.494720102 15.7022901,1.05031807 L15.7022901,14.6953562 C15.7015903,15.2509542 15.2516539,15.7015903 14.696056,15.7015903 Z" stroke="#F1F2F2" stroke-width="0.5" fill="url(#linearGradient-3)"></path>
                        </g>
                        <g transform="translate(2.659033, 0.000000)" fill="#494949" font-family="Helvetica" font-size="12.5954198" font-weight="normal">
                            <text id="M">
                                <tspan x="0.00800508906" y="13.0182424">M</tspan>
                            </text>
                            <text id="Y">
                                <tspan x="14.8813206" y="13.0182424">Y</tspan>
                            </text>
                        </g>
                    </g>
                </g>
            </g>
        </g>
    </g>
</svg>
