<?xml version="1.0" encoding="UTF-8"?>
<svg width="18px" height="16px" viewBox="0 0 18 16" version="1.1" xmlns="http://www.w3.org/2000/svg" xmlns:xlink="http://www.w3.org/1999/xlink">
    <!-- Generator: sketchtool 63.1 (101010) - https://sketch.com -->
    <title>99C44065-8F34-41D8-BFE5-952EF2D306A6</title>
    <desc>Created with sketchtool.</desc>
    <g id="Icons" stroke="none" stroke-width="1" fill="none" fill-rule="evenodd">
        <g id="All-Menus" transform="translate(-1184.000000, -1646.000000)">
            <g id="print_black_24dp-copy" transform="translate(1183.000000, 1644.000000)">
                <polygon id="Path" points="0 0 20 0 20 20 0 20"></polygon>
                <path d="M15.8333333,6.66666667 L15,6.66666667 L15,2.5 L5,2.5 L5,6.66666667 L4.16666667,6.66666667 C2.78333333,6.66666667 1.66666667,7.78333333 1.66666667,9.16666667 L1.66666667,14.1666667 L5,14.1666667 L5,17.5 L15,17.5 L15,14.1666667 L18.3333333,14.1666667 L18.3333333,9.16666667 C18.3333333,7.78333333 17.2166667,6.66666667 15.8333333,6.66666667 Z M6.66666667,4.16666667 L13.3333333,4.16666667 L13.3333333,6.66666667 L6.66666667,6.66666667 L6.66666667,4.16666667 Z M13.3333333,14.1666667 L13.3333333,15.8333333 L6.66666667,15.8333333 L6.66666667,12.5 L13.3333333,12.5 L13.3333333,14.1666667 Z M15,12.5 L15,10.8333333 L5,10.8333333 L5,12.5 L3.33333333,12.5 L3.33333333,9.16666667 C3.33333333,8.70833333 3.70833333,8.33333333 4.16666667,8.33333333 L15.8333333,8.33333333 C16.2916667,8.33333333 16.6666667,8.70833333 16.6666667,9.16666667 L16.6666667,12.5 L15,12.5 Z" id="Shape" fill="#3E4551" fill-rule="nonzero"></path>
                <circle id="Oval" fill="#3E4551" fill-rule="nonzero" cx="15" cy="9.58333333" r="1"></circle>
            </g>
        </g>
    </g>
</svg>