<?xml version="1.0" encoding="UTF-8"?>
<svg width="18px" height="18px" viewBox="0 0 18 18" version="1.1" xmlns="http://www.w3.org/2000/svg" xmlns:xlink="http://www.w3.org/1999/xlink">
    <!-- Generator: sketchtool 63.1 (101010) - https://sketch.com -->
    <title>DB84468E-F65B-4E03-AFBE-AB1EDCDA1053</title>
    <desc>Created with sketchtool.</desc>
    <g id="Icons" stroke="none" stroke-width="1" fill="none" fill-rule="evenodd">
        <g id="All-Icons" transform="translate(-375.000000, -645.000000)">
            <g id="Request-for-a-demo" transform="translate(374.000000, 644.000000)">
                <polygon id="Path" points="0 0 20 0 20 20 0 20"></polygon>
                <path d="M16.6666667,1.66666667 L3.33333333,1.66666667 C2.41666667,1.66666667 1.675,2.41666667 1.675,3.33333333 L1.66666667,18.3333333 L5,15 L16.6666667,15 C17.5833333,15 18.3333333,14.25 18.3333333,13.3333333 L18.3333333,3.33333333 C18.3333333,2.41666667 17.5833333,1.66666667 16.6666667,1.66666667 Z M16.6666667,13.3333333 L4.30833333,13.3333333 L3.33333333,14.3083333 L3.33333333,3.33333333 L16.6666667,3.33333333 L16.6666667,13.3333333 Z M11.6666667,8.83333333 L14.1666667,10.8333333 L14.1666667,5.83333333 L11.6666667,7.83333333 L11.6666667,5.83333333 L5.83333333,5.83333333 L5.83333333,10.8333333 L11.6666667,10.8333333 L11.6666667,8.83333333 Z" id="Shape" fill="#3E4551" fill-rule="nonzero"></path>
            </g>
        </g>
    </g>
</svg>