<?xml version="1.0" encoding="UTF-8"?>
<svg width="16px" height="10px" viewBox="0 0 16 10" version="1.1" xmlns="http://www.w3.org/2000/svg" xmlns:xlink="http://www.w3.org/1999/xlink">
    <!-- Generator: sketchtool 63.1 (101010) - https://sketch.com -->
    <title>0F32B985-3B7B-43D3-BAD0-61094AAD92EF</title>
    <desc>Created with sketchtool.</desc>
    <g id="Icons" stroke="none" stroke-width="1" fill="none" fill-rule="evenodd">
        <g id="All-Icons" transform="translate(-418.000000, -649.000000)">
            <g id="Self-learning-videos" transform="translate(416.000000, 644.000000)">
                <polygon id="Path" points="0 0 20 0 20 20 0 20"></polygon>
                <path d="M12.5,6.66666667 L12.5,13.3333333 L4.16666667,13.3333333 L4.16666667,6.66666667 L12.5,6.66666667 M13.3333333,5 L3.33333333,5 C2.875,5 2.5,5.375 2.5,5.83333333 L2.5,14.1666667 C2.5,14.625 2.875,15 3.33333333,15 L13.3333333,15 C13.7916667,15 14.1666667,14.625 14.1666667,14.1666667 L14.1666667,11.25 L17.5,14.5833333 L17.5,5.41666667 L14.1666667,8.75 L14.1666667,5.83333333 C14.1666667,5.375 13.7916667,5 13.3333333,5 Z" id="Shape" fill="#3E4551" fill-rule="nonzero"></path>
            </g>
        </g>
    </g>
</svg>