<?xml version="1.0" encoding="UTF-8"?>
<svg width="16px" height="13px" viewBox="0 0 16 13" version="1.1" xmlns="http://www.w3.org/2000/svg" xmlns:xlink="http://www.w3.org/1999/xlink">
    <!-- Generator: sketchtool 63.1 (101010) - https://sketch.com -->
    <title>E3A13F90-25B6-4B44-9CF5-B546CF494E4D</title>
    <desc>Created with sketchtool.</desc>
    <g id="Icons" stroke="none" stroke-width="1" fill="none" fill-rule="evenodd">
        <g id="All-Icons" transform="translate(-460.000000, -649.000000)">
            <g id="Write-for-us" transform="translate(458.000000, 644.000000)">
                <rect id="Rectangle" x="0" y="0" width="20" height="20"></rect>
                <path d="M2.5,8.33333333 L11.6666667,8.33333333 L11.6666667,10 L2.5,10 L2.5,8.33333333 Z M2.5,6.66666667 L11.6666667,6.66666667 L11.6666667,5 L2.5,5 L2.5,6.66666667 Z M2.5,13.3333333 L8.33333333,13.3333333 L8.33333333,11.6666667 L2.5,11.6666667 L2.5,13.3333333 Z M15.0083333,10.725 L15.6,10.1333333 C15.925,9.80833333 16.45,9.80833333 16.775,10.1333333 L17.3666667,10.725 C17.6916667,11.05 17.6916667,11.575 17.3666667,11.9 L16.775,12.4916667 L15.0083333,10.725 Z M14.4166667,11.3166667 L10,15.7333333 L10,17.5 L11.7666667,17.5 L16.1833333,13.0833333 L14.4166667,11.3166667 Z" id="Shape" fill="#3E4551" fill-rule="nonzero"></path>
            </g>
        </g>
    </g>
</svg>